<svg xmlns="http://www.w3.org/2000/svg" xmlns:svg="http://www.w3.org/2000/svg" xmlns:xlink="http://www.w3.org/1999/xlink" id="svg64" width="24" height="24" version="1.1" viewBox="-8.5 7.5 24 24"><metadata id="metadata68"/><defs id="defs60"><polygon id="bolt" points="6.5 18.5 .5 14.5-7.5 24.5 .5 19.5 6.5 23.5 14.5 13.5"/></defs><use id="use62" width="100%" height="100%" x="0" y="0" fill="#fbb03b" transform="matrix(-0.67196495,0.18005246,-0.18005246,-0.67196495,8.9213019,26.19204)" xlink:href="#bolt"/><g id="svgGroup" fill="#fbb03b" stroke="none" stroke-linecap="round" transform="matrix(0.15983119,0,0,0.15983119,-5.4645732,21.852848)"><path id="path936" d="m 111.709,23.145 v 15.293 q -1.875,1.963 -5.537,3.706 -2.83,1.347 -6.972,1.653 a 34.626,34.626 0 0 1 -2.55,0.09 19.824,19.824 0 0 1 -6.994,-1.191 17.565,17.565 0 0 1 -6.966,-4.815 20.677,20.677 0 0 1 -4.953,-10.346 29.119,29.119 0 0 1 -0.452,-5.24 v -0.703 a 28.331,28.331 0 0 1 0.784,-6.843 20.251,20.251 0 0 1 4.563,-8.772 Q 87.979,0 96.855,0 a 25.794,25.794 0 0 1 4.179,0.323 18.911,18.911 0 0 1 4.156,1.157 19.979,19.979 0 0 1 3.865,2.092 16.881,16.881 0 0 1 2.185,1.819 v 7.734 h -4.043 L 105.791,7.237 A 11.108,11.108 0 0 0 103.818,5.961 14.242,14.242 0 0 0 102.319,5.303 11.259,11.259 0 0 0 100.233,4.756 Q 99.212,4.585 98.045,4.55 A 20.252,20.252 0 0 0 97.441,4.541 16.122,16.122 0 0 0 92.928,5.139 11.853,11.853 0 0 0 86.792,9.273 16.777,16.777 0 0 0 83.65,15.978 q -0.556,2.396 -0.591,5.182 a 29.936,29.936 0 0 0 -0.002,0.373 v 0.762 a 26.345,26.345 0 0 0 0.487,5.221 q 0.651,3.216 2.168,5.73 a 15.338,15.338 0 0 0 0.963,1.412 11.612,11.612 0 0 0 8.429,4.644 15.851,15.851 0 0 0 1.546,0.073 27.426,27.426 0 0 0 2.248,-0.086 q 2.004,-0.165 3.465,-0.646 a 21.953,21.953 0 0 0 1.517,-0.558 q 1.205,-0.497 2.058,-1.053 V 27.686 L 98.936,27.393 V 23.145 Z M 29.414,5.274 v 7.939 H 25.049 L 23.965,7.119 Q 22.832,6.163 21.051,5.488 A 15.723,15.723 0 0 0 20.449,5.274 Q 18.252,4.541 15.352,4.541 A 17.455,17.455 0 0 0 12.686,4.732 Q 11.292,4.947 10.167,5.408 A 7.707,7.707 0 0 0 8.291,6.49 6.47,6.47 0 0 0 6.484,8.655 Q 5.83,9.956 5.83,11.573 a 5.393,5.393 0 0 0 1.85,4.102 7.917,7.917 0 0 0 0.655,0.541 12.23,12.23 0 0 0 1.854,1.112 q 2.389,1.185 6.247,2.155 a 33.903,33.903 0 0 1 4.228,1.326 q 3.706,1.455 6.011,3.596 3.501,3.252 3.501,8.056 0,4.99 -3.938,8.087 a 13.046,13.046 0 0 1 -0.266,0.204 q -3.847,2.869 -9.865,3.112 a 28.082,28.082 0 0 1 -1.136,0.023 25.634,25.634 0 0 1 -4.645,-0.402 19.72,19.72 0 0 1 -4.1,-1.209 Q 2.402,40.664 0,38.057 v -7.94 h 4.336 l 1.113,6.124 a 13.091,13.091 0 0 0 2.47,1.592 16.2,16.2 0 0 0 1.515,0.663 q 2.314,0.879 5.537,0.879 a 16.737,16.737 0 0 0 2.726,-0.208 q 1.479,-0.244 2.673,-0.776 a 8.208,8.208 0 0 0 1.5,-0.861 q 2.534,-1.846 2.534,-5.01 A 6.3,6.3 0 0 0 22.473,27.864 7.782,7.782 0 0 0 22.207,27.613 8.93,8.93 0 0 0 20.555,26.466 Q 18.813,25.501 16.086,24.72 A 41.029,41.029 0 0 0 14.443,24.287 Q 9.369,23.079 5.959,21.015 A 17.735,17.735 0 0 1 3.867,19.541 10.744,10.744 0 0 1 1.264,16.49 9.741,9.741 0 0 1 0.059,11.66 9.961,9.961 0 0 1 3.399,4.1 13.75,13.75 0 0 1 4.307,3.325 15.071,15.071 0 0 1 10.205,0.56 Q 12.398,0.04 14.962,0.003 A 27.34,27.34 0 0 1 15.352,0 q 4.482,0 8.159,1.538 3.382,1.415 5.537,3.388 a 13.452,13.452 0 0 1 0.366,0.348 z M 47.842,0.616 v 3.72 l -3.897,0.615 9.551,27.715 0.967,3.369 h 0.176 L 55.605,32.666 65.127,4.922 61.289,4.336 v -3.72 h 13.447 v 3.72 L 71.309,4.805 57.012,43.272 H 52.061 L 37.764,4.805 34.365,4.336 v -3.72 z" vector-effect="non-scaling-stroke"/></g></svg>