<svg xmlns="http://www.w3.org/2000/svg" xmlns:xlink="http://www.w3.org/1999/xlink" viewBox="-8.5 7.5 24 24"><defs><path id="a" d="M6.5 18.5l-6-4-8 10 8-5 6 4 8-10z"/></defs><use width="100%" height="100%" fill="#fbb03b" transform="rotate(165 2.737 13.683) scale(.69567)" xlink:href="#a"/><path fill="#fbb03b" stroke-linecap="round" d="M12.39 25.552v2.444q-.3.314-.885.593-.452.215-1.114.264a5.534 5.534 0 0 1-.408.014 3.168 3.168 0 0 1-1.118-.19 2.807 2.807 0 0 1-1.113-.77 3.305 3.305 0 0 1-.792-1.653 4.654 4.654 0 0 1-.072-.838v-.112a4.528 4.528 0 0 1 .125-1.094 3.237 3.237 0 0 1 .73-1.402q.854-.955 2.273-.955a4.123 4.123 0 0 1 .668.051 3.023 3.023 0 0 1 .664.185 3.193 3.193 0 0 1 .618.335 2.698 2.698 0 0 1 .349.29v1.237h-.646l-.225-.941a1.775 1.775 0 0 0-.315-.204 2.276 2.276 0 0 0-.24-.106 1.8 1.8 0 0 0-.333-.087q-.163-.027-.35-.033a3.237 3.237 0 0 0-.096-.001 2.577 2.577 0 0 0-.722.095 1.894 1.894 0 0 0-.98.661 2.681 2.681 0 0 0-.503 1.072q-.089.383-.094.828a4.785 4.785 0 0 0 0 .06v.121a4.21 4.21 0 0 0 .077.835q.104.514.347.916a2.451 2.451 0 0 0 .154.225 1.856 1.856 0 0 0 1.347.743 2.533 2.533 0 0 0 .247.011 4.384 4.384 0 0 0 .36-.014q.32-.026.553-.103a3.509 3.509 0 0 0 .243-.089q.192-.08.329-.168v-1.494l-1.12-.047v-.679zM-.763 22.696v1.269h-.698l-.173-.974q-.181-.153-.466-.261a2.513 2.513 0 0 0-.096-.034q-.351-.117-.815-.117a2.79 2.79 0 0 0-.426.03q-.223.035-.403.108a1.232 1.232 0 0 0-.3.173 1.034 1.034 0 0 0-.288.346q-.105.208-.105.467a.862.862 0 0 0 .296.655 1.265 1.265 0 0 0 .105.087 1.955 1.955 0 0 0 .296.177q.382.19.998.345a5.419 5.419 0 0 1 .676.212q.593.232.96.575.56.52.56 1.287 0 .798-.629 1.293a2.085 2.085 0 0 1-.042.032q-.615.459-1.577.498a4.488 4.488 0 0 1-.182.003 4.097 4.097 0 0 1-.742-.064 3.152 3.152 0 0 1-.655-.193q-.612-.258-.996-.674v-1.27h.693l.178.98a2.092 2.092 0 0 0 .395.254 2.59 2.59 0 0 0 .242.106q.37.14.885.14a2.675 2.675 0 0 0 .436-.033q.236-.039.427-.124a1.312 1.312 0 0 0 .24-.138q.405-.295.405-.8a1.007 1.007 0 0 0-.309-.745 1.244 1.244 0 0 0-.042-.04 1.427 1.427 0 0 0-.264-.183q-.279-.154-.715-.28a6.558 6.558 0 0 0-.262-.068q-.811-.193-1.356-.523a2.835 2.835 0 0 1-.335-.236 1.717 1.717 0 0 1-.416-.488 1.557 1.557 0 0 1-.192-.772 1.592 1.592 0 0 1 .534-1.208 2.198 2.198 0 0 1 .145-.124 2.409 2.409 0 0 1 .943-.442q.35-.083.76-.089a4.37 4.37 0 0 1 .062 0q.717 0 1.304.246.54.226.885.541a2.15 2.15 0 0 1 .059.056zm2.945-.745v.595l-.623.098 1.527 4.43.154.538h.028l.155-.538 1.522-4.434-.614-.094v-.595h2.15v.595l-.548.075-2.285 6.148h-.792L.571 22.621l-.543-.075v-.595z" vector-effect="non-scaling-stroke"/></svg>